HIERARCHY
ROOT SpineBase
{
  OFFSET 0.000000 0.000000 0.000000
  CHANNELS 6 Xposition Yposition Zposition Zrotation Xrotation Yrotation
  JOINT SpineMid
  {
    OFFSET 0.000000 29.417430 0.000000
    CHANNELS 3 Zrotation Xrotation Yrotation
    JOINT SpineShoulder
    {
      OFFSET 0.161562 21.754129 -0.561435
      CHANNELS 3 Zrotation Xrotation Yrotation
      JOINT Neck
      {
        OFFSET 0.089064 7.179302 -0.543436
        CHANNELS 3 Zrotation Xrotation Yrotation
        JOINT Head
        {
          OFFSET 6.203547 13.153029 1.428402
          CHANNELS 3 Zrotation Xrotation Yrotation
          End Site
          {
            OFFSET 0 0 0
          }
        }
      }
      JOINT ShoulderLeft
      {
        OFFSET -9.208804 -2.551200 -12.491477
        CHANNELS 3 Zrotation Xrotation Yrotation
        JOINT ElbowLeft
        {
          OFFSET -4.487512 -24.116720 -4.821442
          CHANNELS 3 Zrotation Xrotation Yrotation
          JOINT WristLeft
          {
            OFFSET 4.842328 -22.442179 -1.867937
            CHANNELS 3 Zrotation Xrotation Yrotation
            JOINT HandLeft
            {
              OFFSET 0.935563 -5.242999 0.602924
              CHANNELS 3 Zrotation Xrotation Yrotation
              JOINT HandTipLeft
              {
                OFFSET 1.020225 -6.758697 0.842456
                CHANNELS 3 Zrotation Xrotation Yrotation
                End Site
                {
                  OFFSET 0 0 0
                }
              }
              JOINT ThumbLeft
              {
                OFFSET 3.114392 1.847213 0.259926
                CHANNELS 3 Zrotation Xrotation Yrotation
                End Site
                {
                  OFFSET 0 0 0
                }
              }
            }
          }
        }
      }
      JOINT ShoulderRight
      {
        OFFSET 11.084508 -4.305506 12.352953
        CHANNELS 3 Zrotation Xrotation Yrotation
        JOINT ElbowRight
        {
          OFFSET 1.112413 -26.807477 5.979209
          CHANNELS 3 Zrotation Xrotation Yrotation
          JOINT WristRight
          {
            OFFSET 0.117440 -24.551358 0.432411
            CHANNELS 3 Zrotation Xrotation Yrotation
            JOINT HandRight
            {
              OFFSET 0.968208 -3.406841 -5.462131
              CHANNELS 3 Zrotation Xrotation Yrotation
              JOINT HandTipRight
              {
                OFFSET -2.142265 -4.471302 -1.811931
                CHANNELS 3 Zrotation Xrotation Yrotation
                End Site
                {
                  OFFSET 0 0 0
                }
              }
              JOINT ThumbRight
              {
                OFFSET 0.779730 2.496042 -2.122603
                CHANNELS 3 Zrotation Xrotation Yrotation
                End Site
                {
                  OFFSET 0 0 0
                }
              }
            }
          }
        }
      }
    }
  }
  JOINT HipLeft
  {
    OFFSET -4.353881 1.716348 -8.236851
    CHANNELS 3 Zrotation Xrotation Yrotation
    JOINT KneeLeft
    {
      OFFSET -7.010433 -27.725062 3.207531
      CHANNELS 3 Zrotation Xrotation Yrotation
      JOINT AnkleLeft
      {
        OFFSET -5.481299 -33.038298 6.707462
        CHANNELS 3 Zrotation Xrotation Yrotation
        JOINT FootLeft
        {
          OFFSET 4.896372 -7.000937 -0.747856
          CHANNELS 3 Zrotation Xrotation Yrotation
          End Site
          {
            OFFSET 0 0 0
          }
        }
      }
    }
  }
  JOINT HipRight
  {
    OFFSET 4.955423 0.091319 1.335554
    CHANNELS 3 Zrotation Xrotation Yrotation
    JOINT KneeRight
    {
      OFFSET -1.892663 -26.916586 8.503338
      CHANNELS 3 Zrotation Xrotation Yrotation
      JOINT AnkleRight
      {
        OFFSET -9.764861 -32.590731 2.148361
        CHANNELS 3 Zrotation Xrotation Yrotation
        JOINT FootRight
        {
          OFFSET 1.517657 -8.169269 -5.092983
          CHANNELS 3 Zrotation Xrotation Yrotation
          End Site
          {
            OFFSET 0 0 0
          }
        }
      }
    }
  }
}
MOTION
Frames: 6
Frame Time: 0.033333
-26.321854 68.349229 323.049707 -0.000000 0.000000 -45.798318 0.000000 0.000000 45.798318 -0.000000 0.000000 0.000000 -0.000000 0.000000 0.000000 0.000000 0.000000 0.000000 -0.000000 0.000000 0.000000 -0.000000 0.000000 0.000000 -0.000000 0.000000 0.000000 -0.000000 0.000000 0.000000 0.000000 0.000000 0.000000 0.000000 0.000000 0.000000 -0.000000 0.000000 0.000000 -0.000000 0.000000 0.000000 -0.000000 0.000000 0.000000 -0.000000 0.000000 0.000000 0.000000 0.000000 0.000000 0.000000 0.000000 0.000000 0.000000 0.000000 45.798318 -0.000000 0.000000 0.000000 -0.000000 0.000000 0.000000 0.000000 0.000000 0.000000 0.000000 0.000000 45.798318 -0.000000 0.000000 0.000000 -0.000000 0.000000 0.000000 0.000000 0.000000 0.000000
-26.143217 68.328373 323.478312 0.214101 -0.560217 -45.895505 -0.551287 0.236146 45.897688 -0.000000 0.000000 0.000000 -0.000000 0.000000 0.000000 0.000000 0.000000 0.000000 -0.000000 0.000000 0.000000 -0.000000 0.000000 0.000000 -0.000000 0.000000 0.000000 -0.000000 0.000000 0.000000 0.000000 0.000000 0.000000 0.000000 0.000000 0.000000 -0.318239 2.040181 0.019434 0.317749 -2.040258 -0.008109 -0.656998 -2.247744 0.415335 3.492375 -0.437552 -0.361085 0.000000 0.000000 0.000000 0.000000 0.000000 0.000000 -1.437386 0.470075 45.649227 0.452209 -0.797109 0.257068 0.672431 -0.931263 -0.715371 0.000000 0.000000 0.000000 -0.551287 0.236146 45.897688 -0.000000 0.000000 0.000000 1.175998 -0.796454 -0.875078 0.000000 0.000000 0.000000
-25.991589 68.309740 323.838216 0.393483 -1.027027 -45.981265 -1.011999 0.430667 45.988595 -0.000000 0.000000 0.000000 -0.000000 0.000000 0.000000 0.000000 0.000000 0.000000 -0.000000 0.000000 0.000000 -0.000000 0.000000 0.000000 0.873110 0.369213 0.163314 -0.180383 0.525578 0.051279 0.000000 0.000000 0.000000 0.000000 0.000000 0.000000 -0.574499 3.722128 0.045376 0.572761 -3.722396 -0.008096 -1.322146 -4.338509 0.893380 6.980699 -1.012321 -0.952341 0.000000 0.000000 0.000000 0.000000 0.000000 0.000000 -2.651472 0.859248 45.537639 0.842843 -1.470024 0.480225 1.215678 -1.745372 -1.324404 0.000000 0.000000 0.000000 -2.262443 1.167879 45.799132 0.343498 -1.410248 0.211135 2.189239 -1.496196 -1.621730 0.000000 0.000000 0.000000
-25.866972 68.293330 324.129419 0.537977 -1.399977 -46.054661 -0.477441 0.217217 46.078044 -0.362772 0.905572 -0.013224 -0.000000 0.000000 0.000000 0.000000 0.000000 0.000000 -0.000000 0.000000 0.000000 -0.000000 0.000000 0.000000 1.161696 0.505400 0.218371 -0.273111 0.717407 0.064629 0.000000 0.000000 0.000000 0.000000 0.000000 0.000000 -0.766179 5.031307 0.072414 0.762767 -5.031824 -0.005236 -1.969341 -6.148924 1.433104 10.231007 -1.664517 -1.744310 0.000000 0.000000 0.000000 0.000000 0.000000 0.000000 -3.639756 1.167056 45.456856 1.169592 -2.017796 0.666531 1.630295 -2.434299 -1.828101 0.000000 0.000000 0.000000 -3.097631 1.594564 45.817194 0.472082 -1.934600 0.291683 3.038394 -2.088754 -2.241505 0.000000 0.000000 0.000000
-25.769363 68.279143 324.351921 0.647443 -1.678749 -46.114868 -0.545059 0.247155 46.145094 -0.447318 1.114722 -0.015475 -0.000000 0.000000 0.000000 0.000000 0.000000 0.000000 -0.000000 0.000000 0.000000 -0.000000 0.000000 0.000000 1.337919 0.603555 0.254139 -0.348035 0.873901 0.075226 0.000000 0.000000 0.000000 0.000000 0.000000 0.000000 -0.891128 5.957993 0.096218 0.885927 -5.958766 -0.003732 -2.570983 -7.557393 2.029656 12.995521 -2.293280 -2.684066 0.000000 0.000000 0.000000 0.000000 0.000000 0.000000 -4.400261 1.393490 45.401379 1.430557 -2.439837 0.813545 1.917115 -2.991756 -2.227481 0.000000 0.000000 0.000000 -3.731281 1.915876 45.839444 0.570347 -2.335260 0.353880 3.723128 -2.565839 -2.736444 0.000000 0.000000 0.000000
-25.698765 68.267179 324.505723 0.721777 -1.863126 -46.161209 -0.566020 0.255940 46.196648 -0.513791 1.277782 -0.017025 -0.000000 0.000000 0.000000 0.000000 0.000000 0.000000 -0.000000 0.000000 0.000000 -0.000000 0.000000 0.000000 1.394254 0.660376 0.269738 -0.395811 1.001223 0.085801 0.000000 0.000000 0.000000 0.000000 0.000000 0.000000 -0.947678 6.495720 0.113718 0.940854 -6.496708 -0.006539 -3.101866 -8.461325 2.672987 15.058483 -2.774424 -3.706796 0.000000 0.000000 0.000000 0.000000 0.000000 0.000000 -4.931479 1.538776 45.366987 1.624248 -2.735798 0.919339 2.077041 -3.413021 -2.523370 0.000000 0.000000 0.000000 -4.161008 2.131780 45.861737 0.637425 -2.610531 0.396789 4.243678 -2.921158 -3.108664 0.000000 0.000000 0.000000
